<svg width="40" height="40" viewBox="0 0 40 40" fill="none" xmlns="http://www.w3.org/2000/svg">
<g clip-path="url(#clip0_447_5930)">
<path d="M0 20C0 31.0457 8.95431 40 20 40C31.0457 40 40 31.0457 40 20C40 8.95431 31.0457 0 20 0C8.95431 0 0 8.95431 0 20Z" fill="#E1E7FF"/>
<path d="M28.0008 20.185L20.0137 7V16.5301L28.0008 20.185Z" fill="#62688F"/>
<path d="M19.9864 32.9997V26.4767L12.0898 21.7578L19.9864 32.9997Z" fill="#8A92B2"/>
<path d="M20.0137 32.9997V26.4767L27.9102 21.7578L20.0137 32.9997Z" fill="#62688F"/>
<path d="M19.9872 24.8555V16.5303L12 20.185L19.9872 24.8555Z" fill="#62688F"/>
<path d="M20.0137 24.8555V16.5303L28.0009 20.185L20.0137 24.8555Z" fill="#454A75"/>
<path d="M12 20.185L19.9872 7V16.5301L12 20.185Z" fill="#8A92B2"/>
</g>
<defs>
<clipPath id="clip0_447_5930">
<rect width="40" height="40" rx="20" fill="white"/>
</clipPath>
</defs>
</svg>
