<svg width="current" height="current" viewBox="0 0 40 40" fill="none" xmlns="http://www.w3.org/2000/svg">
<g clip-path="url(#clip0_1457_940)">
<path d="M40 20C40 8.9543 31.0457 0 20 0C8.9543 0 0 8.9543 0 20C0 31.0457 8.9543 40 20 40C31.0457 40 40 31.0457 40 20Z" fill="#6058FD"/>
<path d="M40 20C40 8.9543 31.0457 0 20 0C8.9543 0 0 8.9543 0 20C0 31.0457 8.9543 40 20 40C31.0457 40 40 31.0457 40 20Z" fill="url(#paint0_linear_1457_940)" fill-opacity="0.66"/>
<mask id="mask0_1457_940" style="mask-type:luminance" maskUnits="userSpaceOnUse" x="10" y="5" width="20" height="30">
<path d="M29.3061 5.05859H10.6641L10.6664 34.9125H29.3084L29.3061 5.05859Z" fill="white"/>
</mask>
<g mask="url(#mask0_1457_940)">
<path fill-rule="evenodd" clip-rule="evenodd" d="M29.3043 28.9454C29.3065 28.9619 29.3075 28.9787 29.3079 28.9957C29.3084 29.1274 29.2408 29.2497 29.1287 29.3189L20.1485 34.8561C20.0272 34.9309 19.8744 34.9314 19.7534 34.8566L10.8458 29.3884C10.7337 29.3192 10.6655 29.1972 10.666 29.0656C10.666 29.0544 10.6665 29.0426 10.6679 29.0314C10.6665 29.0191 10.666 29.0075 10.666 28.9952L10.6654 22.1632C10.6654 22.155 10.6659 22.1467 10.6664 22.1389C10.6598 22.0399 10.6925 21.9395 10.7626 21.8617C10.8821 21.7294 11.0778 21.6989 11.2315 21.7884L19.9845 26.8684L28.6568 21.8375C28.6708 21.8287 28.6858 21.8219 28.7007 21.8154C28.7642 21.7662 28.8437 21.7371 28.9305 21.7371C29.1383 21.7371 29.3074 21.9061 29.3074 22.1141L29.3079 28.8924C29.3079 28.9106 29.3065 28.928 29.3043 28.9454ZM11.4198 28.399L14.0072 26.8357L11.4194 23.2742L11.4198 28.399ZM14.4518 27.4482C13.734 27.8816 11.7678 29.0695 11.7678 29.0695L18.7389 33.3495L14.4518 27.4482ZM21.2834 33.2709L28.2062 29.0019L25.5313 27.3935L21.2834 33.2709ZM25.9744 26.7801L28.554 28.3312L28.5537 23.2112L25.9744 26.7801ZM19.7954 27.6301L12.3955 23.335L19.984 33.7812L27.5024 23.3785L20.1737 27.6301C20.0569 27.6979 19.9122 27.6979 19.7954 27.6301ZM11.0296 20.3295C10.8274 20.3225 10.6653 20.1566 10.6653 19.9525L10.6646 11.0721C10.6646 11.05 10.6664 11.0282 10.6702 11.0074C10.6664 10.987 10.6646 10.9661 10.6646 10.9448C10.6641 10.8132 10.7323 10.6908 10.8444 10.6221L19.8249 5.11435C19.9454 5.04007 20.0977 5.04009 20.2182 5.11392L29.1258 10.5522C29.2383 10.6208 29.3065 10.7433 29.3065 10.8749C29.3065 10.8805 29.306 10.8858 29.306 10.8914C29.306 10.8971 29.3065 10.9027 29.3065 10.9088L29.3073 19.906C29.3073 20.065 29.2083 20.2014 29.069 20.2565L20.166 25.154C20.053 25.2161 19.9157 25.2161 19.8027 25.154L11.0296 20.3295ZM11.4184 11.6098L11.419 18.7555L14.6217 13.5356L11.4184 11.6098ZM28.5528 11.542L25.3199 13.4952L28.5533 18.7646L28.5528 11.542ZM24.9258 12.8525C25.7547 12.3516 28.2034 10.8723 28.2034 10.8723L21.0193 6.48597L24.9258 12.8525ZM18.896 6.56807L11.7677 10.9401L15.0158 12.8932L18.896 6.56807ZM11.655 19.813L19.9843 24.3935L28.3119 19.8126L19.9829 6.2384L11.655 19.813Z" fill="#EDE8FF"/>
</g>
</g>
<defs>
<linearGradient id="paint0_linear_1457_940" x1="21.25" y1="-2.5" x2="20" y2="40" gradientUnits="userSpaceOnUse">
<stop stop-color="#33117B" stop-opacity="0"/>
<stop offset="0.827261" stop-color="#33117B"/>
</linearGradient>
<clipPath id="clip0_1457_940">
<rect width="40" height="40" fill="white"/>
</clipPath>
</defs>
</svg>
